<?xml version="1.0" encoding="UTF-8"?>
<svg id="Layer_1" data-name="Layer 1" xmlns="http://www.w3.org/2000/svg" viewBox="0 0 1007.4 78.5">
  <defs>
    <style>
      .cls-1 {
        isolation: isolate;
      }
    </style>
  </defs>
  <g id="PROFESSOR_._E" data-name="PROFESSOR . E" class="cls-1">
    <g class="cls-1">
      <path d="m70.6,5.3c4.8,2.1,8.5,5,11.1,8.7,2.6,3.7,3.9,8,3.9,12.8v.4c0,8.1-2.6,14.2-7.8,18.5-5.2,4.3-12.5,6.5-21.9,6.5H20.8v24H0V2.2h54.1c6.2,0,11.7,1,16.5,3.1Zm-11.2,31.2c2-.3,3.6-1.1,5-2.5,1.4-1.4,2.1-3.6,2.1-6.7s-.7-5.4-2.1-6.8c-1.4-1.4-3.1-2.3-5.1-2.7-2-.3-4.8-.5-8.3-.5h-3.7c-1.5,0-4.2,0-8,0-3.8,0-9.9,0-18.5,0v19.5h30.2c3.7,0,6.5-.2,8.4-.5Z"/>
      <path d="m154.5,76.1l-20.5-23.9h-20.9v23.9h-20V2.1h54.1c6.2,0,11.7,1,16.5,3.1,4.8,2.1,8.5,5,11.1,8.7,2.6,3.7,3.9,8,3.9,12.8v.4c0,6.3-1.9,11.6-5.5,15.7-3.7,4.1-8.8,6.9-15.4,8.3l21.5,25h-24.8Zm2.2-55.8c-1.3-1.5-2.9-2.4-4.9-2.7-2-.3-4.8-.5-8.5-.5s-3,0-4.1,0c-5.5.1-14.2.2-26.1.2v19.5h30.2c3.7,0,6.5-.2,8.5-.5s3.6-1.2,4.9-2.5c1.3-1.4,1.9-3.6,1.9-6.6s-.6-5.5-1.9-7Z"/>
      <path d="m255.8,5.7c7.1,3.4,12.7,8,16.8,13.9,4.1,5.9,6.1,12.6,6.1,20s-2,13.9-6.1,19.8c-4.1,5.9-9.7,10.5-16.8,13.9-7.1,3.4-15.2,5-24.1,5s-16.5-1.7-23.8-5c-7.2-3.4-13-8-17.2-13.9-4.3-5.9-6.4-12.5-6.4-19.8s2.1-14,6.4-19.9c4.2-5.9,10-10.6,17.2-14,7.3-3.4,15.2-5,23.8-5s17,1.7,24.1,5Zm-11.8,53.6c3.9-1.8,7-4.3,9.4-7.7,2.4-3.4,3.6-7.4,3.6-12s-1.2-8.6-3.6-12c-2.4-3.4-5.5-6-9.4-7.8-3.9-1.8-8-2.7-12.3-2.7s-8.6.9-12.5,2.6c-3.9,1.8-7,4.4-9.4,7.8-2.3,3.4-3.5,7.4-3.5,12s1.2,8.7,3.5,12.2c2.4,3.4,5.5,6,9.4,7.8,3.9,1.8,8,2.7,12.4,2.7s8.4-.9,12.3-2.7Z"/>
      <path d="m363.5,2.2v15.7h-56.8v12.9h48.4v15.2h-48.4v30.2h-20.7V2.2h77.5Z"/>
      <path d="m440.6,46h-48.4v14.8l56.8-.4v15.8h-77.5V2.2h77.5v15.7c.1,0-56.8,0-56.8,0v12.6h48.4v15.5Z"/>
      <path d="m508,32.7c7,0,13.1.4,18.2,1.3,5.1.9,9.4,2.7,12.8,5.6,3.4,2.9,5.2,7.1,5.2,12.7,0,10.3-4.5,17.2-13.5,20.8-9,3.6-19.1,5.4-30.3,5.4s-21.3-1.8-30.9-5.5c-9.6-3.7-14.4-10.8-14.4-21.2l21.5-.2c0,3.7,1.4,6.4,4.2,8.2,2.8,1.8,5.9,2.9,9.3,3.4,3.4.4,7,.6,11,.6,6,0,11.2-.9,15.5-2.6,4.3-1.7,6.5-4.5,6.6-8.4h0c0-3-2.2-4.8-6.5-5.6-4.3-.8-9.5-1.2-15.5-1.2h-6.2c-8,0-14.8-.4-20.3-1.2-5.5-.8-10.2-2.8-14-5.8-3.8-3-5.7-7.6-5.7-13.8,0-16.7,15.1-25.1,45.3-25.1s20.7,1.8,30,5.5c9.2,3.7,13.9,10.7,13.9,21.2h-21.3c0-3.7-2.2-6.6-6.5-8.5-4.3-1.9-9.6-3-15.8-3.3-6.7,0-12.5.8-17.1,2.4-4.7,1.6-7.1,4.1-7.1,7.5,0,5.3,7.7,8,23.2,8h8.4Z"/>
      <path d="m602.7,32.7c7,0,13.1.4,18.2,1.3,5.1.9,9.4,2.7,12.8,5.6,3.4,2.9,5.2,7.1,5.2,12.7,0,10.3-4.5,17.2-13.5,20.8-9,3.6-19.1,5.4-30.3,5.4s-21.3-1.8-30.9-5.5c-9.6-3.7-14.4-10.8-14.4-21.2l21.5-.2c0,3.7,1.4,6.4,4.2,8.2,2.8,1.8,5.9,2.9,9.3,3.4,3.4.4,7,.6,11,.6,6,0,11.2-.9,15.5-2.6,4.3-1.7,6.5-4.5,6.6-8.4h0c0-3-2.2-4.8-6.5-5.6-4.3-.8-9.5-1.2-15.5-1.2h-6.2c-8,0-14.8-.4-20.3-1.2-5.5-.8-10.2-2.8-14-5.8-3.8-3-5.7-7.6-5.7-13.8,0-16.7,15.1-25.1,45.3-25.1s20.7,1.8,30,5.5c9.2,3.7,13.9,10.7,13.9,21.2h-21.3c0-3.7-2.2-6.6-6.5-8.5-4.3-1.9-9.6-3-15.8-3.3-6.7,0-12.5.8-17.1,2.4-4.7,1.6-7.1,4.1-7.1,7.5,0,5.3,7.7,8,23.2,8h8.4Z"/>
      <path d="m715.7,5.7c7.1,3.4,12.7,8,16.8,13.9,4.1,5.9,6.1,12.6,6.1,20s-2,13.9-6.1,19.8c-4.1,5.9-9.7,10.5-16.8,13.9-7.1,3.4-15.2,5-24.1,5s-16.5-1.7-23.8-5c-7.2-3.4-13-8-17.2-13.9-4.3-5.9-6.4-12.5-6.4-19.8s2.1-14,6.3-19.9c4.2-5.9,10-10.6,17.2-14,7.3-3.4,15.2-5,23.8-5s17,1.7,24.1,5Zm-11.8,53.6c3.9-1.8,7-4.3,9.4-7.7,2.4-3.4,3.6-7.4,3.6-12s-1.2-8.6-3.6-12c-2.4-3.4-5.5-6-9.4-7.8-3.9-1.8-8-2.7-12.3-2.7s-8.7.9-12.6,2.6c-3.9,1.8-7,4.4-9.3,7.8-2.3,3.4-3.5,7.4-3.5,12s1.2,8.7,3.5,12.2c2.4,3.4,5.5,6,9.4,7.8,3.9,1.8,8,2.7,12.5,2.7s8.4-.9,12.3-2.7Z"/>
      <path d="m807.3,76.1l-20.5-23.9h-20.9v23.9h-20V2.1h54.1c6.2,0,11.7,1,16.4,3.1,4.8,2.1,8.5,5,11.1,8.7,2.6,3.7,4,8,4,12.8v.4c0,6.3-1.9,11.6-5.6,15.7-3.7,4.1-8.8,6.9-15.3,8.3l21.5,25h-24.8Zm2.2-55.8c-1.3-1.5-2.9-2.4-4.9-2.7-2-.3-4.8-.5-8.5-.5s-3,0-4.1,0c-5.5.1-14.2.2-26.1.2v19.5h30.2c3.7,0,6.5-.2,8.5-.5s3.6-1.2,4.9-2.5c1.3-1.4,1.9-3.6,1.9-6.6s-.6-5.5-1.9-7Z"/>
      <path d="m889.5,59.2v17h-19.4v-17h19.4Z"/>
      <path d="m998.9,46h-48.4v14.8l56.8-.4v15.8h-77.5V2.2h77.5v15.7c.1,0-56.8,0-56.8,0v12.6h48.4v15.5Z"/>
    </g>
  </g>
</svg>