<svg width="46" height="86" viewBox="0 0 46 86" fill="none" xmlns="http://www.w3.org/2000/svg">
<path d="M6.49023 60.4281C6.41387 15.3734 6.33752 0.304423 0 0.304423V0H19.6998V0.304423C17.7909 0.304423 17.7145 15.9061 17.7145 49.2405C17.7145 69.4086 18.9362 76.3342 21.7614 76.3342C24.4338 76.3342 27.7935 68.1909 27.5644 49.0883C27.3353 16.515 27.1826 0.304423 21.9904 0.304423V0H39.8576V0.304423C38.865 0.304423 38.865 16.1345 38.865 41.0972C38.865 64.7661 39.0177 83.6404 45.3553 83.6404V83.9448H26.1136C27.7171 81.205 27.8698 74.1272 28.0989 68.1148C28.0989 67.2776 27.3353 67.5059 27.259 67.9626C25.4264 76.7148 21.5323 85.9997 15.5002 85.9997C7.86463 85.9997 6.49023 76.867 6.49023 60.4281Z" fill="#231F20"/>
</svg>
