<svg width="30" height="132" viewBox="0 0 30 132" fill="none" xmlns="http://www.w3.org/2000/svg">
<path d="M0 117.809C0 111.476 2.98538 109.111 6.5066 109.111C9.79818 109.111 12.8601 110.942 12.8601 114.986C12.8601 118.419 10.4106 121.166 7.04244 121.09C5.28183 121.09 4.2867 123.074 4.2867 125.21C4.2867 127.804 5.20528 130.551 8.34376 130.474C13.0132 130.398 14.8504 126.049 14.8504 119.793C14.8504 115.139 14.4676 110.256 12.707 106.288C12.5539 105.678 12.4774 104.991 12.5539 104.152C12.6305 92.7833 12.8601 80.2705 12.8601 67.6813C12.8601 37.3911 13.0132 22.5893 5.81767 22.4367V22.1315H29.7773V22.4367C23.8831 22.4367 23.9596 41.0533 24.1127 67.7576C24.1892 81.5675 24.3423 93.0122 24.3423 104.228C24.3423 120.403 19.9025 132 10.4871 132C1.07167 132 0 122.082 0 117.809ZM18.3716 0C24.1892 0 26.7919 2.89932 26.7919 7.0957C26.7919 11.2921 24.1892 14.344 18.3716 14.344C12.5539 14.344 9.79818 11.4447 9.79818 7.0957C9.79818 2.74672 12.4774 0 18.3716 0Z" fill="#231F20"/>
</svg>
