<svg width="47" height="86" viewBox="0 0 47 86" fill="none" xmlns="http://www.w3.org/2000/svg">
<path d="M6.49601 44.1045C6.49601 21.6333 6.41958 2.28521 0 2.28521V1.98052H19.2587C17.6539 4.72277 17.501 11.8831 17.3482 17.8246C17.3482 18.6625 18.036 18.434 18.1124 17.977C20.4051 7.92206 25.8312 0 32.0215 0C38.7468 0 40.046 9.44553 40.046 26.2037C40.1224 69.4704 40.1224 85.6954 46.4656 85.6954V86H0.152849V85.6954C6.41958 85.6954 6.49601 68.0231 6.49601 44.1045ZM23.5385 85.6954C28.6588 85.6954 28.8117 68.7848 28.8117 36.7157C28.8117 18.2817 27.2068 11.5784 23.6913 11.5784C20.1758 11.5784 17.5774 18.1293 17.8067 36.868C18.1124 66.9566 18.2652 85.6954 23.5385 85.6954Z" fill="#231F20"/>
</svg>
