<svg width="30" height="113" viewBox="0 0 30 113" fill="none" xmlns="http://www.w3.org/2000/svg">
<path d="M6.48054 66.4932V32.2207C6.48054 31.4608 5.56564 30.7009 4.80323 30.7009H1.75356C1.29611 30.7009 0.991147 30.2449 0.991147 29.9409C0.991147 29.637 1.29611 29.181 1.75356 29.181H4.72697C5.48939 29.181 6.40429 28.5731 6.25181 27.6612C5.71812 24.5455 5.41314 21.5818 5.41314 18.9221C5.41314 5.77541 11.9699 0 20.7377 0C28.8956 0 29.2005 7.90319 29.2005 11.9308C29.2005 19.302 26.3033 22.9497 22.5675 22.9497C19.899 22.9497 17.1544 21.0499 17.1544 17.0223C17.1544 13.6026 19.7466 10.8669 23.1774 10.9429C27.0658 10.8669 28.5144 1.59584 22.4913 1.59584C18.4505 1.59584 14.9433 4.78751 14.9433 14.3625C14.9433 18.0102 15.477 22.7217 17.5356 27.5852C17.7643 28.1931 18.0693 29.181 19.2891 29.181H25.8459C26.3033 29.181 26.6083 29.637 26.6083 29.9409C26.6083 30.2449 26.3033 30.7009 25.8459 30.7009H18.9079C18.1455 30.7009 17.688 31.1568 17.688 31.9167V66.6452C17.688 97.954 17.3831 112.545 27.5995 112.697V113H0V112.697C6.70926 112.697 6.48054 93.6984 6.48054 66.4932Z" fill="#231F20"/>
</svg>
