<svg width="37" height="88" viewBox="0 0 37 88" fill="none" xmlns="http://www.w3.org/2000/svg">
<path d="M0 44.0381C0 10.5725 9.46216 -0.0756541 19.7637 0.000404027C32.736 0.15252 36.1698 18.6346 36.1698 32.6293C36.1698 38.5619 34.9489 38.5619 30.3705 38.5619H15.4142C14.4985 38.5619 13.888 39.3225 13.888 40.2352C13.9643 72.4838 15.4905 86.1743 22.7397 86.1743C31.744 86.1743 33.4228 65.9428 33.728 52.1763C33.728 51.7199 33.9569 51.4157 34.4148 51.4157C34.7963 51.4157 35.0252 51.7199 35.0252 52.1763C34.6437 79.7854 29.5311 87.9996 20.2978 87.9996C8.77538 87.9996 0 75.4501 0 44.0381ZM15.1852 36.8886H19.3058C23.3502 36.8886 23.2738 35.4435 23.2738 30.5758C23.2738 8.97526 22.6634 1.59763 19.3058 1.59763C15.9483 1.59763 14.0406 8.82315 14.0406 30.88V35.5956C14.0406 36.3562 14.4985 36.8886 15.1852 36.8886Z" fill="#231F20"/>
</svg>
