<svg width="52" height="52" viewBox="0 0 52 52" fill="none" xmlns="http://www.w3.org/2000/svg">
<path fill-rule="evenodd" clip-rule="evenodd" d="M26.0006 2.70801C20.3167 2.70801 15.709 7.31575 15.709 12.9997C15.709 18.6836 20.3167 23.2913 26.0006 23.2913C31.6846 23.2913 36.2923 18.6836 36.2923 12.9997C36.2923 7.31575 31.6846 2.70801 26.0006 2.70801ZM17.6441 12.9994C17.6441 9.11036 22.1123 4.64223 26.0013 4.64223C29.8904 4.64223 34.3584 9.11036 34.3584 12.9994C34.3584 16.8884 29.8904 21.3565 26.0013 21.3565C22.1123 21.3565 17.6441 16.8884 17.6441 12.9994Z" fill="black"/>
<path d="M25.9996 26.542C20.9869 26.542 16.3686 27.6814 12.9464 29.6063C9.57519 31.5028 7.04129 34.3769 7.04129 37.917L7.04116 38.138L7.04116 38.138C7.03871 40.6552 7.03564 43.8147 9.80687 46.0712C11.1707 47.1819 13.0787 47.9716 15.6564 48.4936C18.2414 49.0166 21.6105 49.292 25.9996 49.292C30.3888 49.292 33.758 49.0166 36.3428 48.4936C38.9207 47.9716 40.8287 47.1819 42.1924 46.0712C44.9635 43.8147 44.9605 40.6553 44.9581 38.1381V38.138L44.9579 37.917C44.9579 34.3769 42.4242 31.5028 39.0529 29.6063C35.6306 27.6814 31.0124 26.542 25.9996 26.542ZM8.60165 38.1496C8.60165 35.9713 11.0251 33.2044 13.9273 31.5721C16.7785 29.9683 21.4386 28.7863 25.9987 28.7863C30.5591 28.7863 35.2188 29.9683 38.0702 31.5721C40.9724 33.2044 43.172 36.103 43.172 37.9475C43.172 40.7811 42.3364 43.3665 40.8559 44.5721C40.0531 45.226 38.2772 46.2224 35.9798 46.6873C33.6899 47.1508 30.2772 47.3578 25.9996 47.3578C21.7221 47.3578 17.9465 46.8926 15.6564 46.4292C13.3592 45.9642 12.4023 45.6361 11.5995 44.9822C8.81375 43.1251 8.60165 40.9353 8.60165 38.1496Z" fill="black"/>
<path d="M25.9996 26.542C20.9869 26.542 16.3686 27.6814 12.9464 29.6063C9.57519 31.5028 7.04129 34.3769 7.04129 37.917L7.04116 38.138L7.04116 38.138C7.03871 40.6552 7.03564 43.8147 9.80687 46.0712C11.1707 47.1819 13.0787 47.9716 15.6564 48.4936C18.2414 49.0166 21.6105 49.292 25.9996 49.292C30.3888 49.292 33.758 49.0166 36.3428 48.4936C38.9207 47.9716 40.8287 47.1819 42.1924 46.0712C44.9635 43.8147 44.9605 40.6553 44.9581 38.1381V38.138L44.9579 37.917C44.9579 34.3769 42.4242 31.5028 39.0529 29.6063C35.6306 27.6814 31.0124 26.542 25.9996 26.542ZM8.60165 38.1496C8.60165 35.9713 11.0251 33.2044 13.9273 31.5721C16.7785 29.9683 21.4386 28.7863 25.9987 28.7863C30.5591 28.7863 35.2188 29.9683 38.0702 31.5721C40.9724 33.2044 43.172 36.103 43.172 37.9475C43.172 40.7811 42.3364 43.3665 40.8559 44.5721C40.0531 45.226 38.2772 46.2224 35.9798 46.6873C33.6899 47.1508 30.2772 47.3578 25.9996 47.3578C21.7221 47.3578 17.9465 46.8926 15.6564 46.4292C13.3592 45.9642 12.4023 45.6361 11.5995 44.9822C8.81375 43.1251 8.60165 40.9353 8.60165 38.1496Z" stroke="black"/>
</svg>
