<?xml version="1.0" encoding="UTF-8"?>
<svg id="Layer_1" data-name="Layer 1" xmlns="http://www.w3.org/2000/svg" viewBox="0 0 571.78 316.5">
  <defs>
    <style>
      .cls-1 {
        fill: #231f20;
      }
    </style>
  </defs>
  <path class="cls-1" d="M0,277.65c0-12.45,5.85-17.1,12.75-17.1,6.45,0,12.45,3.6,12.45,11.55,0,6.75-4.8,12.15-11.4,12-3.45,0-5.4,3.9-5.4,8.1,0,5.1,1.8,10.5,7.95,10.35,9.15-.15,12.75-8.7,12.75-21,0-9.15-.75-18.75-4.2-26.55-.3-1.2-.45-2.55-.3-4.2.15-22.35.6-46.95.6-71.7,0-59.55.3-88.65-13.8-88.95v-.6h46.95v.6c-11.55,0-11.4,36.6-11.1,89.1.15,27.15.45,49.65.45,71.7,0,31.8-8.7,54.6-27.15,54.6S0,286.05,0,277.65ZM36,46.04c11.4,0,16.5,5.7,16.5,13.95s-5.1,14.25-16.5,14.25-16.8-5.7-16.8-14.25,5.25-13.95,16.8-13.95Z"/>
  <path class="cls-1" d="M82.2,208.65c-.15-88.8-.3-118.5-12.75-118.5v-.6h38.7v.6c-3.75,0-3.9,30.75-3.9,96.45,0,39.75,2.4,53.4,7.95,53.4,5.25,0,11.85-16.05,11.4-53.7-.45-64.2-.75-96.15-10.95-96.15v-.6h35.1v.6c-1.95,0-1.95,31.2-1.95,80.4,0,46.65.3,83.85,12.75,83.85v.6h-37.8c3.15-5.4,3.45-19.35,3.9-31.2,0-1.65-1.5-1.2-1.65-.3-3.6,17.25-11.25,35.55-23.1,35.55-15,0-17.7-18-17.7-50.4Z"/>
  <path class="cls-1" d="M180.44,172.5c0-44.25-.15-82.35-12.75-82.35v-.6h37.8c-3.15,5.4-3.45,19.5-3.75,31.2,0,1.65,1.35,1.2,1.5.3,4.5-19.8,15.15-35.4,27.3-35.4,13.2,0,15.75,18.6,15.75,51.6.15,85.2.15,117.15,12.6,117.15v.6h-90.9v-.6c12.3,0,12.45-34.8,12.45-81.9ZM213.89,254.4c10.05,0,10.35-33.3,10.35-96.45,0-36.3-3.15-49.5-10.05-49.5s-12,12.9-11.55,49.8c.6,59.25.9,96.15,11.25,96.15Z"/>
  <path class="cls-1" d="M275.09,172.8c0-66,18.6-87,38.85-86.85,25.5.3,32.25,36.75,32.25,64.35,0,11.7-2.4,11.7-11.4,11.7h-29.4c-1.8,0-3,1.5-3,3.3.15,63.6,3.15,90.6,17.4,90.6,17.7,0,21-39.9,21.6-67.05,0-.9.45-1.5,1.35-1.5.75,0,1.2.6,1.2,1.5-.75,54.45-10.8,70.65-28.95,70.65-22.65,0-39.9-24.75-39.9-86.7ZM304.94,158.7h8.1c7.95,0,7.8-2.85,7.8-12.45,0-42.6-1.2-57.15-7.8-57.15s-10.35,14.25-10.35,57.75v9.3c0,1.5.9,2.55,2.25,2.55Z"/>
  <path class="cls-1" d="M423.88,168.9c0-41.1,13.35-84.75,37.2-84.75s37.5,43.65,37.5,84.75c0,44.7-13.5,90.3-37.5,90.3s-37.2-45.6-37.2-90.3ZM461.08,256.2c7.35,0,10.5-26.85,10.5-87.3,0-56.55-3.15-81.75-10.5-81.75s-10.2,25.2-10.2,81.75c0,60.45,3,87.3,10.2,87.3Z"/>
  <path class="cls-1" d="M527.08,163.2v-67.65c0-1.5-1.8-3-3.3-3h-6c-.9,0-1.5-.9-1.5-1.5s.6-1.5,1.5-1.5h5.85c1.5,0,3.3-1.2,3-3-1.05-6.15-1.65-12-1.65-17.25,0-25.95,12.9-37.35,30.15-37.35,16.05,0,16.65,15.6,16.65,23.55,0,14.55-5.7,21.75-13.05,21.75-5.25,0-10.65-3.75-10.65-11.7,0-6.75,5.1-12.15,11.85-12,7.65-.15,10.5-18.45-1.35-18.45-7.95,0-14.85,6.3-14.85,25.2,0,7.2,1.05,16.5,5.1,26.1.45,1.2,1.05,3.15,3.45,3.15h12.9c.9,0,1.5.9,1.5,1.5s-.6,1.5-1.5,1.5h-13.65c-1.5,0-2.4.9-2.4,2.4v68.55c0,61.8-.6,90.6,19.5,90.9v.6h-54.3v-.6c13.2,0,12.75-37.5,12.75-91.2Z"/>
</svg>